{
    "asset" : {
        "generator" : "Khronos glTF Blender I/O v1.4.40",
        "version" : "2.0"
    },
    "scene" : 0,
    "scenes" : [
        {
            "name" : "Scene",
            "nodes" : [
                0
            ]
        }
    ],
    "nodes" : [
        {
            "mesh" : 0,
            "name" : "B20Mm",
            "translation" : [
                -110,
                0,
                110
            ]
        }
    ],
    "meshes" : [
        {
            "name" : "B20Mm",
            "primitives" : [
                {
                    "attributes" : {
                        "POSITION" : 0,
                        "NORMAL" : 1
                    },
                    "indices" : 2
                }
            ]
        }
    ],
    "accessors" : [
        {
            "bufferView" : 0,
            "componentType" : 5126,
            "count" : 5204,
            "max" : [
                125,
                70,
                -95
            ],
            "min" : [
                95,
                0,
                -125
            ],
            "type" : "VEC3"
        },
        {
            "bufferView" : 1,
            "componentType" : 5126,
            "count" : 5204,
            "type" : "VEC3"
        },
        {
            "bufferView" : 2,
            "componentType" : 5123,
            "count" : 6018,
            "type" : "SCALAR"
        }
    ],
    "bufferViews" : [
        {
            "buffer" : 0,
            "byteLength" : 62448,
            "byteOffset" : 0
        },
        {
            "buffer" : 0,
            "byteLength" : 62448,
            "byteOffset" : 62448
        },
        {
            "buffer" : 0,
            "byteLength" : 12036,
            "byteOffset" : 124896
        }
    ],
    "buffers" : [
        {
            "byteLength" : 136932,
            "uri" : "data:application/octet-stream;base64,"
        }
    ]
}
