{
    "asset" : {
        "generator" : "Khronos glTF Blender I/O v1.4.40",
        "version" : "2.0"
    },
    "scene" : 0,
    "scenes" : [
        {
            "name" : "Scene",
            "nodes" : [
                0
            ]
        }
    ],
    "nodes" : [
        {
            "mesh" : 0,
            "name" : "Foot20Mm",
            "translation" : [
                -200,
                0,
                0
            ]
        }
    ],
    "meshes" : [
        {
            "name" : "Foot20Mm.001",
            "primitives" : [
                {
                    "attributes" : {
                        "POSITION" : 0,
                        "NORMAL" : 1
                    },
                    "indices" : 2
                }
            ]
        }
    ],
    "accessors" : [
        {
            "bufferView" : 0,
            "componentType" : 5126,
            "count" : 2133,
            "max" : [
                215,
                10,
                15
            ],
            "min" : [
                185,
                -4,
                -15
            ],
            "type" : "VEC3"
        },
        {
            "bufferView" : 1,
            "componentType" : 5126,
            "count" : 2133,
            "type" : "VEC3"
        },
        {
            "bufferView" : 2,
            "componentType" : 5123,
            "count" : 2556,
            "type" : "SCALAR"
        }
    ],
    "bufferViews" : [
        {
            "buffer" : 0,
            "byteLength" : 25596,
            "byteOffset" : 0
        },
        {
            "buffer" : 0,
            "byteLength" : 25596,
            "byteOffset" : 25596
        },
        {
            "buffer" : 0,
            "byteLength" : 5112,
            "byteOffset" : 51192
        }
    ],
    "buffers" : [
        {
            "byteLength" : 56304,
            "uri" : "data:application/octet-stream;base64,"
        }
    ]
}
